<mxfile host="Electron" modified="2023-12-10T09:10:55.624Z" agent="Mozilla/5.0 (Windows NT 10.0; Win64; x64) AppleWebKit/537.36 (KHTML, like Gecko) draw.io/22.0.3 Chrome/114.0.5735.289 Electron/25.8.4 Safari/537.36" etag="zCjgLXcCUdku3OByz1-L" version="22.0.3" type="device">
  <diagram name="第 1 页" id="9mlO3gLvQQBxHcpap2ac">
    <mxGraphModel dx="1182" dy="683" grid="1" gridSize="10" guides="1" tooltips="1" connect="1" arrows="1" fold="1" page="1" pageScale="1" pageWidth="1169" pageHeight="827" math="0" shadow="0">
      <root>
        <mxCell id="0" />
        <mxCell id="1" parent="0" />
        <mxCell id="4xIJEfuRPOG6RYowP6VK-1" value=":Main" style="shape=umlLifeline;perimeter=lifelinePerimeter;whiteSpace=wrap;html=1;container=1;dropTarget=0;collapsible=0;recursiveResize=0;outlineConnect=0;portConstraint=eastwest;newEdgeStyle={&quot;curved&quot;:0,&quot;rounded&quot;:0};" vertex="1" parent="1">
          <mxGeometry x="210" y="240" width="100" height="310" as="geometry" />
        </mxCell>
        <mxCell id="4xIJEfuRPOG6RYowP6VK-2" value="" style="html=1;points=[[0,0,0,0,5],[0,1,0,0,-5],[1,0,0,0,5],[1,1,0,0,-5]];perimeter=orthogonalPerimeter;outlineConnect=0;targetShapes=umlLifeline;portConstraint=eastwest;newEdgeStyle={&quot;curved&quot;:0,&quot;rounded&quot;:0};" vertex="1" parent="4xIJEfuRPOG6RYowP6VK-1">
          <mxGeometry x="45" y="50" width="10" height="70" as="geometry" />
        </mxCell>
        <mxCell id="4xIJEfuRPOG6RYowP6VK-65" value="" style="shape=umlDestroy;whiteSpace=wrap;html=1;strokeWidth=3;targetShapes=umlLifeline;" vertex="1" parent="4xIJEfuRPOG6RYowP6VK-1">
          <mxGeometry x="40" y="280" width="20" height="20" as="geometry" />
        </mxCell>
        <mxCell id="4xIJEfuRPOG6RYowP6VK-69" value="" style="html=1;points=[[0,0,0,0,5],[0,1,0,0,-5],[1,0,0,0,5],[1,1,0,0,-5]];perimeter=orthogonalPerimeter;outlineConnect=0;targetShapes=umlLifeline;portConstraint=eastwest;newEdgeStyle={&quot;curved&quot;:0,&quot;rounded&quot;:0};" vertex="1" parent="4xIJEfuRPOG6RYowP6VK-1">
          <mxGeometry x="45" y="220" width="10" height="60" as="geometry" />
        </mxCell>
        <mxCell id="4xIJEfuRPOG6RYowP6VK-13" value="" style="endArrow=open;endFill=1;endSize=12;html=1;rounded=0;" edge="1" parent="1" source="4xIJEfuRPOG6RYowP6VK-2" target="4xIJEfuRPOG6RYowP6VK-17">
          <mxGeometry width="160" relative="1" as="geometry">
            <mxPoint x="260" y="310" as="sourcePoint" />
            <mxPoint x="340" y="310" as="targetPoint" />
            <Array as="points">
              <mxPoint x="275" y="310" />
            </Array>
          </mxGeometry>
        </mxCell>
        <mxCell id="4xIJEfuRPOG6RYowP6VK-14" value="server.config(args)" style="edgeLabel;html=1;align=center;verticalAlign=middle;resizable=0;points=[];fontSize=9;" vertex="1" connectable="0" parent="4xIJEfuRPOG6RYowP6VK-13">
          <mxGeometry x="-0.0252" y="1" relative="1" as="geometry">
            <mxPoint as="offset" />
          </mxGeometry>
        </mxCell>
        <mxCell id="4xIJEfuRPOG6RYowP6VK-5" value=":Sever" style="shape=umlLifeline;perimeter=lifelinePerimeter;whiteSpace=wrap;html=1;container=1;dropTarget=0;collapsible=0;recursiveResize=0;outlineConnect=0;portConstraint=eastwest;newEdgeStyle={&quot;curved&quot;:0,&quot;rounded&quot;:0};" vertex="1" parent="1">
          <mxGeometry x="343" y="240" width="100" height="310" as="geometry" />
        </mxCell>
        <mxCell id="4xIJEfuRPOG6RYowP6VK-17" value="" style="html=1;points=[[0,0,0,0,5],[0,1,0,0,-5],[1,0,0,0,5],[1,1,0,0,-5]];perimeter=orthogonalPerimeter;outlineConnect=0;targetShapes=umlLifeline;portConstraint=eastwest;newEdgeStyle={&quot;curved&quot;:0,&quot;rounded&quot;:0};" vertex="1" parent="4xIJEfuRPOG6RYowP6VK-5">
          <mxGeometry x="45" y="60" width="10" height="20" as="geometry" />
        </mxCell>
        <mxCell id="4xIJEfuRPOG6RYowP6VK-24" value="" style="html=1;points=[[0,0,0,0,5],[0,1,0,0,-5],[1,0,0,0,5],[1,1,0,0,-5]];perimeter=orthogonalPerimeter;outlineConnect=0;targetShapes=umlLifeline;portConstraint=eastwest;newEdgeStyle={&quot;curved&quot;:0,&quot;rounded&quot;:0};" vertex="1" parent="4xIJEfuRPOG6RYowP6VK-5">
          <mxGeometry x="45" y="90" width="10" height="40" as="geometry" />
        </mxCell>
        <mxCell id="4xIJEfuRPOG6RYowP6VK-54" value="" style="html=1;points=[[0,0,0,0,5],[0,1,0,0,-5],[1,0,0,0,5],[1,1,0,0,-5]];perimeter=orthogonalPerimeter;outlineConnect=0;targetShapes=umlLifeline;portConstraint=eastwest;newEdgeStyle={&quot;curved&quot;:0,&quot;rounded&quot;:0};" vertex="1" parent="4xIJEfuRPOG6RYowP6VK-5">
          <mxGeometry x="45" y="230" width="10" height="30" as="geometry" />
        </mxCell>
        <mxCell id="4xIJEfuRPOG6RYowP6VK-66" value="" style="shape=umlDestroy;whiteSpace=wrap;html=1;strokeWidth=3;targetShapes=umlLifeline;" vertex="1" parent="4xIJEfuRPOG6RYowP6VK-5">
          <mxGeometry x="40" y="260" width="20" height="20" as="geometry" />
        </mxCell>
        <mxCell id="4xIJEfuRPOG6RYowP6VK-15" value="" style="endArrow=open;endFill=1;endSize=12;html=1;rounded=0;" edge="1" parent="1">
          <mxGeometry width="160" relative="1" as="geometry">
            <mxPoint x="120" y="260" as="sourcePoint" />
            <mxPoint x="210" y="260" as="targetPoint" />
          </mxGeometry>
        </mxCell>
        <mxCell id="4xIJEfuRPOG6RYowP6VK-16" value="Main(args)" style="edgeLabel;html=1;align=center;verticalAlign=middle;resizable=0;points=[];" vertex="1" connectable="0" parent="4xIJEfuRPOG6RYowP6VK-15">
          <mxGeometry x="0.0119" y="2" relative="1" as="geometry">
            <mxPoint x="-6" as="offset" />
          </mxGeometry>
        </mxCell>
        <mxCell id="4xIJEfuRPOG6RYowP6VK-18" value="" style="endArrow=open;endFill=1;endSize=12;html=1;rounded=0;" edge="1" parent="1">
          <mxGeometry width="160" relative="1" as="geometry">
            <mxPoint x="398.0000000000001" y="316" as="sourcePoint" />
            <mxPoint x="510" y="316" as="targetPoint" />
            <Array as="points">
              <mxPoint x="469" y="316" />
              <mxPoint x="489" y="316" />
              <mxPoint x="500" y="316" />
            </Array>
          </mxGeometry>
        </mxCell>
        <mxCell id="4xIJEfuRPOG6RYowP6VK-19" value="new SocketListener()" style="edgeLabel;html=1;align=center;verticalAlign=middle;resizable=0;points=[];fontSize=9;" vertex="1" connectable="0" parent="4xIJEfuRPOG6RYowP6VK-18">
          <mxGeometry x="-0.0252" y="1" relative="1" as="geometry">
            <mxPoint x="-3" y="1" as="offset" />
          </mxGeometry>
        </mxCell>
        <mxCell id="4xIJEfuRPOG6RYowP6VK-20" value=":SocketListener" style="shape=umlLifeline;perimeter=lifelinePerimeter;whiteSpace=wrap;html=1;container=1;dropTarget=0;collapsible=0;recursiveResize=0;outlineConnect=0;portConstraint=eastwest;newEdgeStyle={&quot;curved&quot;:0,&quot;rounded&quot;:0};" vertex="1" parent="1">
          <mxGeometry x="510" y="296" width="100" height="254" as="geometry" />
        </mxCell>
        <mxCell id="4xIJEfuRPOG6RYowP6VK-21" value="" style="html=1;points=[[0,0,0,0,5],[0,1,0,0,-5],[1,0,0,0,5],[1,1,0,0,-5]];perimeter=orthogonalPerimeter;outlineConnect=0;targetShapes=umlLifeline;portConstraint=eastwest;newEdgeStyle={&quot;curved&quot;:0,&quot;rounded&quot;:0};" vertex="1" parent="4xIJEfuRPOG6RYowP6VK-20">
          <mxGeometry x="45" y="64" width="10" height="166" as="geometry" />
        </mxCell>
        <mxCell id="4xIJEfuRPOG6RYowP6VK-64" value="" style="shape=umlDestroy;whiteSpace=wrap;html=1;strokeWidth=3;targetShapes=umlLifeline;" vertex="1" parent="4xIJEfuRPOG6RYowP6VK-20">
          <mxGeometry x="40" y="230" width="20" height="20" as="geometry" />
        </mxCell>
        <mxCell id="4xIJEfuRPOG6RYowP6VK-25" value="" style="endArrow=open;endFill=1;endSize=12;html=1;rounded=0;" edge="1" parent="1" source="4xIJEfuRPOG6RYowP6VK-2" target="4xIJEfuRPOG6RYowP6VK-24">
          <mxGeometry width="160" relative="1" as="geometry">
            <mxPoint x="240" y="340" as="sourcePoint" />
            <mxPoint x="383" y="340" as="targetPoint" />
            <Array as="points">
              <mxPoint x="270" y="340" />
            </Array>
          </mxGeometry>
        </mxCell>
        <mxCell id="4xIJEfuRPOG6RYowP6VK-26" value="server.start()" style="edgeLabel;html=1;align=center;verticalAlign=middle;resizable=0;points=[];fontSize=9;" vertex="1" connectable="0" parent="4xIJEfuRPOG6RYowP6VK-25">
          <mxGeometry x="-0.0252" y="1" relative="1" as="geometry">
            <mxPoint as="offset" />
          </mxGeometry>
        </mxCell>
        <mxCell id="4xIJEfuRPOG6RYowP6VK-27" value="" style="endArrow=open;endFill=1;endSize=12;html=1;rounded=0;" edge="1" parent="1" source="4xIJEfuRPOG6RYowP6VK-24" target="4xIJEfuRPOG6RYowP6VK-21">
          <mxGeometry width="160" relative="1" as="geometry">
            <mxPoint x="400" y="360" as="sourcePoint" />
            <mxPoint x="540" y="360" as="targetPoint" />
            <Array as="points">
              <mxPoint x="469" y="360" />
              <mxPoint x="500" y="360" />
            </Array>
          </mxGeometry>
        </mxCell>
        <mxCell id="4xIJEfuRPOG6RYowP6VK-28" value="listener.start()" style="edgeLabel;html=1;align=center;verticalAlign=middle;resizable=0;points=[];fontSize=9;" vertex="1" connectable="0" parent="4xIJEfuRPOG6RYowP6VK-27">
          <mxGeometry x="-0.0252" y="1" relative="1" as="geometry">
            <mxPoint x="-3" y="1" as="offset" />
          </mxGeometry>
        </mxCell>
        <mxCell id="4xIJEfuRPOG6RYowP6VK-30" value=":ServerSocket" style="shape=umlLifeline;perimeter=lifelinePerimeter;whiteSpace=wrap;html=1;container=1;dropTarget=0;collapsible=0;recursiveResize=0;outlineConnect=0;portConstraint=eastwest;newEdgeStyle={&quot;curved&quot;:0,&quot;rounded&quot;:0};" vertex="1" parent="1">
          <mxGeometry x="670" y="360" width="100" height="190" as="geometry" />
        </mxCell>
        <mxCell id="4xIJEfuRPOG6RYowP6VK-31" value="" style="html=1;points=[[0,0,0,0,5],[0,1,0,0,-5],[1,0,0,0,5],[1,1,0,0,-5]];perimeter=orthogonalPerimeter;outlineConnect=0;targetShapes=umlLifeline;portConstraint=eastwest;newEdgeStyle={&quot;curved&quot;:0,&quot;rounded&quot;:0};" vertex="1" parent="4xIJEfuRPOG6RYowP6VK-30">
          <mxGeometry x="46.5" y="70" width="7.5" height="70" as="geometry" />
        </mxCell>
        <mxCell id="4xIJEfuRPOG6RYowP6VK-37" style="edgeStyle=orthogonalEdgeStyle;rounded=0;orthogonalLoop=1;jettySize=auto;html=1;curved=0;exitX=1;exitY=1;exitDx=0;exitDy=-5;exitPerimeter=0;entryX=1;entryY=0;entryDx=0;entryDy=5;entryPerimeter=0;" edge="1" parent="4xIJEfuRPOG6RYowP6VK-30" source="4xIJEfuRPOG6RYowP6VK-31" target="4xIJEfuRPOG6RYowP6VK-31">
          <mxGeometry relative="1" as="geometry">
            <Array as="points">
              <mxPoint x="80" y="135" />
              <mxPoint x="80" y="75" />
            </Array>
          </mxGeometry>
        </mxCell>
        <mxCell id="4xIJEfuRPOG6RYowP6VK-38" value="accept()" style="edgeLabel;html=1;align=center;verticalAlign=middle;resizable=0;points=[];fontSize=9;" vertex="1" connectable="0" parent="4xIJEfuRPOG6RYowP6VK-37">
          <mxGeometry x="-0.0007" relative="1" as="geometry">
            <mxPoint as="offset" />
          </mxGeometry>
        </mxCell>
        <mxCell id="4xIJEfuRPOG6RYowP6VK-46" style="edgeStyle=orthogonalEdgeStyle;rounded=0;orthogonalLoop=1;jettySize=auto;html=1;curved=0;exitX=1;exitY=0;exitDx=0;exitDy=5;exitPerimeter=0;" edge="1" parent="4xIJEfuRPOG6RYowP6VK-30" source="4xIJEfuRPOG6RYowP6VK-36">
          <mxGeometry relative="1" as="geometry">
            <mxPoint x="220" y="85" as="targetPoint" />
          </mxGeometry>
        </mxCell>
        <mxCell id="4xIJEfuRPOG6RYowP6VK-47" value="new SocketHandler()" style="edgeLabel;html=1;align=center;verticalAlign=middle;resizable=0;points=[];fontSize=9;" vertex="1" connectable="0" parent="4xIJEfuRPOG6RYowP6VK-46">
          <mxGeometry x="0.2002" y="1" relative="1" as="geometry">
            <mxPoint x="-4" y="-1" as="offset" />
          </mxGeometry>
        </mxCell>
        <mxCell id="4xIJEfuRPOG6RYowP6VK-36" value="" style="html=1;points=[[0,0,0,0,5],[0,1,0,0,-5],[1,0,0,0,5],[1,1,0,0,-5]];perimeter=orthogonalPerimeter;outlineConnect=0;targetShapes=umlLifeline;portConstraint=eastwest;newEdgeStyle={&quot;curved&quot;:0,&quot;rounded&quot;:0};" vertex="1" parent="4xIJEfuRPOG6RYowP6VK-30">
          <mxGeometry x="45.25" y="80" width="10" height="10" as="geometry" />
        </mxCell>
        <mxCell id="4xIJEfuRPOG6RYowP6VK-61" value="" style="html=1;points=[[0,0,0,0,5],[0,1,0,0,-5],[1,0,0,0,5],[1,1,0,0,-5]];perimeter=orthogonalPerimeter;outlineConnect=0;targetShapes=umlLifeline;portConstraint=eastwest;newEdgeStyle={&quot;curved&quot;:0,&quot;rounded&quot;:0};" vertex="1" parent="4xIJEfuRPOG6RYowP6VK-30">
          <mxGeometry x="45.25" y="160" width="10" height="20" as="geometry" />
        </mxCell>
        <mxCell id="4xIJEfuRPOG6RYowP6VK-63" value="" style="shape=umlDestroy;whiteSpace=wrap;html=1;strokeWidth=3;targetShapes=umlLifeline;" vertex="1" parent="4xIJEfuRPOG6RYowP6VK-30">
          <mxGeometry x="40.25" y="170" width="20" height="20" as="geometry" />
        </mxCell>
        <mxCell id="4xIJEfuRPOG6RYowP6VK-32" value="" style="endArrow=open;endFill=1;endSize=12;html=1;rounded=0;" edge="1" parent="1" source="4xIJEfuRPOG6RYowP6VK-21">
          <mxGeometry width="160" relative="1" as="geometry">
            <mxPoint x="570.0000000000001" y="380" as="sourcePoint" />
            <mxPoint x="670" y="380" as="targetPoint" />
            <Array as="points">
              <mxPoint x="641" y="380" />
            </Array>
          </mxGeometry>
        </mxCell>
        <mxCell id="4xIJEfuRPOG6RYowP6VK-33" value="new ServerSocket()" style="edgeLabel;html=1;align=center;verticalAlign=middle;resizable=0;points=[];fontSize=9;" vertex="1" connectable="0" parent="4xIJEfuRPOG6RYowP6VK-32">
          <mxGeometry x="-0.0252" y="1" relative="1" as="geometry">
            <mxPoint x="-3" y="1" as="offset" />
          </mxGeometry>
        </mxCell>
        <mxCell id="4xIJEfuRPOG6RYowP6VK-34" value="" style="endArrow=open;endFill=1;endSize=12;html=1;rounded=0;" edge="1" parent="1" target="4xIJEfuRPOG6RYowP6VK-36">
          <mxGeometry width="160" relative="1" as="geometry">
            <mxPoint x="120" y="440" as="sourcePoint" />
            <mxPoint x="710" y="440" as="targetPoint" />
            <Array as="points">
              <mxPoint x="251" y="440" />
              <mxPoint x="282" y="440" />
            </Array>
          </mxGeometry>
        </mxCell>
        <mxCell id="4xIJEfuRPOG6RYowP6VK-40" value="New Socket Connection" style="edgeLabel;html=1;align=center;verticalAlign=middle;resizable=0;points=[];" vertex="1" connectable="0" parent="4xIJEfuRPOG6RYowP6VK-34">
          <mxGeometry x="-0.8736" y="-3" relative="1" as="geometry">
            <mxPoint x="32" y="-3" as="offset" />
          </mxGeometry>
        </mxCell>
        <mxCell id="4xIJEfuRPOG6RYowP6VK-39" value="loop" style="shape=umlFrame;whiteSpace=wrap;html=1;pointerEvents=0;width=40;height=15;" vertex="1" parent="1">
          <mxGeometry x="675" y="410" width="95" height="100" as="geometry" />
        </mxCell>
        <mxCell id="4xIJEfuRPOG6RYowP6VK-41" value=":SocketHandler" style="shape=umlLifeline;perimeter=lifelinePerimeter;whiteSpace=wrap;html=1;container=1;dropTarget=0;collapsible=0;recursiveResize=0;outlineConnect=0;portConstraint=eastwest;newEdgeStyle={&quot;curved&quot;:0,&quot;rounded&quot;:0};" vertex="1" parent="1">
          <mxGeometry x="890" y="420" width="100" height="130" as="geometry" />
        </mxCell>
        <mxCell id="4xIJEfuRPOG6RYowP6VK-48" value="" style="html=1;points=[[0,0,0,0,5],[0,1,0,0,-5],[1,0,0,0,5],[1,1,0,0,-5]];perimeter=orthogonalPerimeter;outlineConnect=0;targetShapes=umlLifeline;portConstraint=eastwest;newEdgeStyle={&quot;curved&quot;:0,&quot;rounded&quot;:0};" vertex="1" parent="4xIJEfuRPOG6RYowP6VK-41">
          <mxGeometry x="45" y="50" width="10" height="50" as="geometry" />
        </mxCell>
        <mxCell id="4xIJEfuRPOG6RYowP6VK-49" style="edgeStyle=orthogonalEdgeStyle;rounded=0;orthogonalLoop=1;jettySize=auto;html=1;curved=0;exitX=1;exitY=0;exitDx=0;exitDy=5;exitPerimeter=0;entryX=1;entryY=1;entryDx=0;entryDy=-5;entryPerimeter=0;" edge="1" parent="4xIJEfuRPOG6RYowP6VK-41" source="4xIJEfuRPOG6RYowP6VK-48" target="4xIJEfuRPOG6RYowP6VK-48">
          <mxGeometry relative="1" as="geometry" />
        </mxCell>
        <mxCell id="4xIJEfuRPOG6RYowP6VK-50" value="handleMessage()" style="edgeLabel;html=1;align=center;verticalAlign=middle;resizable=0;points=[];fontSize=9;" vertex="1" connectable="0" parent="4xIJEfuRPOG6RYowP6VK-49">
          <mxGeometry x="-0.0325" relative="1" as="geometry">
            <mxPoint x="18" y="1" as="offset" />
          </mxGeometry>
        </mxCell>
        <mxCell id="4xIJEfuRPOG6RYowP6VK-51" value="" style="shape=umlDestroy;whiteSpace=wrap;html=1;strokeWidth=3;targetShapes=umlLifeline;" vertex="1" parent="4xIJEfuRPOG6RYowP6VK-41">
          <mxGeometry x="40" y="100" width="20" height="20" as="geometry" />
        </mxCell>
        <mxCell id="4xIJEfuRPOG6RYowP6VK-52" value="" style="endArrow=open;endFill=1;endSize=12;html=1;rounded=0;entryX=0;entryY=0;entryDx=0;entryDy=5;entryPerimeter=0;" edge="1" parent="1" target="4xIJEfuRPOG6RYowP6VK-54">
          <mxGeometry width="160" relative="1" as="geometry">
            <mxPoint x="270" y="475" as="sourcePoint" />
            <mxPoint x="383" y="474.76" as="targetPoint" />
            <Array as="points">
              <mxPoint x="265" y="474.76" />
            </Array>
          </mxGeometry>
        </mxCell>
        <mxCell id="4xIJEfuRPOG6RYowP6VK-53" value="server.stop()" style="edgeLabel;html=1;align=center;verticalAlign=middle;resizable=0;points=[];fontSize=9;" vertex="1" connectable="0" parent="4xIJEfuRPOG6RYowP6VK-52">
          <mxGeometry x="-0.0252" y="1" relative="1" as="geometry">
            <mxPoint as="offset" />
          </mxGeometry>
        </mxCell>
        <mxCell id="4xIJEfuRPOG6RYowP6VK-55" value="" style="endArrow=open;endFill=1;endSize=12;html=1;rounded=0;" edge="1" parent="1" source="4xIJEfuRPOG6RYowP6VK-54" target="4xIJEfuRPOG6RYowP6VK-21">
          <mxGeometry width="160" relative="1" as="geometry">
            <mxPoint x="400" y="490" as="sourcePoint" />
            <mxPoint x="557" y="490" as="targetPoint" />
            <Array as="points">
              <mxPoint x="471" y="490" />
              <mxPoint x="502" y="490" />
            </Array>
          </mxGeometry>
        </mxCell>
        <mxCell id="4xIJEfuRPOG6RYowP6VK-56" value="listener.stop()" style="edgeLabel;html=1;align=center;verticalAlign=middle;resizable=0;points=[];fontSize=9;" vertex="1" connectable="0" parent="4xIJEfuRPOG6RYowP6VK-55">
          <mxGeometry x="-0.0252" y="1" relative="1" as="geometry">
            <mxPoint x="-3" y="1" as="offset" />
          </mxGeometry>
        </mxCell>
        <mxCell id="4xIJEfuRPOG6RYowP6VK-60" style="edgeStyle=orthogonalEdgeStyle;rounded=0;orthogonalLoop=1;jettySize=auto;html=1;curved=0;" edge="1" parent="1" source="4xIJEfuRPOG6RYowP6VK-21">
          <mxGeometry relative="1" as="geometry">
            <mxPoint x="715" y="520" as="targetPoint" />
            <mxPoint x="570" y="520" as="sourcePoint" />
            <Array as="points">
              <mxPoint x="680" y="520" />
              <mxPoint x="680" y="520" />
            </Array>
          </mxGeometry>
        </mxCell>
        <mxCell id="4xIJEfuRPOG6RYowP6VK-62" value="socket.interrupt()" style="edgeLabel;html=1;align=center;verticalAlign=middle;resizable=0;points=[];fontSize=10;" vertex="1" connectable="0" parent="4xIJEfuRPOG6RYowP6VK-60">
          <mxGeometry x="-0.157" relative="1" as="geometry">
            <mxPoint y="-1" as="offset" />
          </mxGeometry>
        </mxCell>
        <mxCell id="4xIJEfuRPOG6RYowP6VK-67" value="" style="endArrow=open;endFill=1;endSize=12;html=1;rounded=0;" edge="1" parent="1" target="4xIJEfuRPOG6RYowP6VK-69">
          <mxGeometry width="160" relative="1" as="geometry">
            <mxPoint x="120" y="459.88999999999993" as="sourcePoint" />
            <mxPoint x="250" y="459.89" as="targetPoint" />
          </mxGeometry>
        </mxCell>
        <mxCell id="4xIJEfuRPOG6RYowP6VK-68" value="Ctrl+C" style="edgeLabel;html=1;align=center;verticalAlign=middle;resizable=0;points=[];" vertex="1" connectable="0" parent="4xIJEfuRPOG6RYowP6VK-67">
          <mxGeometry x="0.0119" y="2" relative="1" as="geometry">
            <mxPoint x="-6" as="offset" />
          </mxGeometry>
        </mxCell>
        <mxCell id="4xIJEfuRPOG6RYowP6VK-70" value="server &lt;br&gt;网络连接处理" style="shape=umlFrame;whiteSpace=wrap;html=1;pointerEvents=0;width=90;height=40;" vertex="1" parent="1">
          <mxGeometry x="90" y="210" width="940" height="350" as="geometry" />
        </mxCell>
      </root>
    </mxGraphModel>
  </diagram>
</mxfile>
